<svg fill="none" height="76" viewBox="0 0 227 76" width="227" xmlns="http://www.w3.org/2000/svg" xmlns:xlink="http://www.w3.org/1999/xlink"><clipPath id="a"><path d="m0 0h47v60h-47z" transform="matrix(.8660254 -.5 .5 .8660254 .148376 23.769)"/></clipPath><g clip-path="url(#a)"><path d="m43.3012 9.30934c2.3873-4.20034-1.2771-2.62742-2.7395-2.56422-6.983.36644-13.9829 2.36498-20.458 6.10338s-11.70591 8.8013-15.51475 14.6655c-.83089 1.2608-.42903 2.8915.85093 3.6546.45899.2758 1.03167.1254 1.30627-.3336 3.61485-5.9925 8.67765-11.1387 15.15275-14.8771s13.4632-5.5498 20.4343-5.7292c.5608.0368.9774-.38398.968-.91936z" fill="#d6e664" stroke="#333" stroke-miterlimit="10" stroke-width="2"/><path d="m42.6853 12.1885c-6.7723.0044-13.6066 1.6669-19.9018 5.3015s-11.1782 8.6769-14.54216 14.5847c0 0 43.55336 34.6535 41.09366 31.4039-2.4597-3.2495-6.6497-51.2901-6.6497-51.2901z" fill="#d6e664" stroke="#333" stroke-miterlimit="10" stroke-width="2"/><path d="m25.7041 33.3485c-2.9847 3.3456.2395 7.3724.8676 12.7179s-6.2605 6.4986-6.2605 6.4986 2.1222 1.5987 7.2978-.5482c7.9468-3.2662 7.6228-13.1735 6.8878-16.8349-.69-3.6874-5.8079-5.1789-8.7927-1.8334z" stroke="#333" stroke-linecap="round" stroke-linejoin="round" stroke-miterlimit="10" stroke-width="3"/><path d="m30.7013 25.5969s-.0449.026-.1538.1489c-.0639.097-.2438.2008-.3716.3948-.3077.2978-.6533.7377-.9208 1.3127-.2936.53-.4902 1.1242-.5778 1.5954-.0569.2131-.0688.4002-.0806.5873-.0379.1421-.0309.2582-.0309.2582-1.1193.3458-1.7963 1.4577-1.8249 2.1351 1.5597-1.1408 3.4149-1.2505 4.9386-.6882.0189-.071.0379-.1421.0119-.1871-.3264-.773-.9154-1.2741-1.6892-1.3681 0 0-.026-.0451-.0071-.1161-.007-.1161-.0141-.2322-.0282-.4643-.0213-.3483.0404-.8646.173-1.3618.1327-.4971.3363-.9752.547-1.3372.0829-.168.1917-.291.2556-.3879.064-.097.0829-.1681.0829-.1681.0639-.0969.0569-.213-.0401-.2772-.0331-.1611-.194-.1283-.284-.0764z" stroke="#333" stroke-linecap="round" stroke-linejoin="round" stroke-miterlimit="10" stroke-width="3"/><path d="m20.3112 52.5651s6.8626-1.1982 6.2345-6.5436c-.6281-5.3455-3.9233-9.3914-.8676-12.7179 2.9848-3.3455 8.1027-1.854 8.8376 1.8074.7161 3.7325 1.0401 13.6397-6.8807 16.951-5.1756 2.1469-7.3238.5031-7.3238.5031z" fill="#e5002d"/><g fill="#333"><path d="m27.6022 50.7593c6.4677-2.7127 6.0439-10.8198 5.8838-14.2123-.0141-.2322-.0543-.5094-.1134-.7157-.1691 4.4839-.3318 11.3674-5.7704 14.928z"/><path d="m31.6535 31.2958c.019-.071.0379-.142.0119-.1871-.4895-1.1594-1.5424-1.6331-2.8747-1.3445-1.2163.2816-2.0022 1.5165-2.0758 2.2199 1.5407-1.0698 3.4149-1.2506 4.9386-.6883z"/><path d="m28.5398 29.8489s-.007-.1161.0309-.2581c.0379-.1421.0497-.3292.0806-.5873.0876-.4712.2842-1.0654.5778-1.5954.2935-.53.658-1.0409.9657-1.3387.1539-.1489.3077-.2978.3716-.3948.064-.097.1539-.1489.1539-.1489.0899-.0519.2059-.0588.3029.0054.052.0901.0591.2062.0401.2772 0 0-.0189.071-.0828.168s-.1728.22-.2557.388c-.2107.362-.4143.84-.5469 1.3372-.1327.4972-.1943 1.0135-.1731 1.3617-.0119.1871.0212.3483.0282.4644-.0568.213-.0568.213-.0568.213.0472.3934-.2794.7622-.6982.7637-.3929.0465-.7359-.2361-.7382-.6554z"/><path d="m27.0476 35.8967c.3706.0428.7209-.362.7823-.9042.0615-.5421-.1892-1.0163-.5598-1.0591s-.7209.3621-.7823.9042c-.0615.5421.1892 1.0163.5598 1.0591z"/><path d="m27.4549 38.2343c.2566.0297.4987-.247.5407-.618.0421-.3709-.1319-.6956-.3884-.7253-.2566-.0296-.4987.2471-.5407.618-.0421.371.1318.6957.3884.7253z"/><path d="m35.5744 22.3027c-.0331-.1611.0048-.3032-.0023-.4193.0049-.3032.1516-.5681.4214-.7239.1799-.1039.3858-.1626.5987-.1053.071.0191.142.0382.213.0573l1.8809 1.0771c.511.3659 1.2186.1376 1.4601-.4825l.3694-.8141c.2225-.5491-.0968-1.2059-.6646-1.3588l-1.8006-.5226-.213-.0573c-.6388-.1719-.8043-.9777-.3167-1.3794.1089-.1229.1988-.1748.3077-.2978.7952-.6994 1.2947-1.2882.4358-1.6335-1.6018-.6975-4.5031.1964-5.4383 2.4188-.9353 2.2223.4388 4.9139 2.0406 5.6114.724.4232.7715-.3253.7079-1.3701z"/><path d="m41.5305 56.328c.0844-.042.1689-.0416.2322-.0625.169-.0416.3383.0015.4657.1293.0849.0853.1488.1916.1494.3188.0002.0424.0004.0848.0006.1272l-.3115 1.2072c-.1253.3386.1089.7002.4896.7443l.5077.0872c.3384.044.6543-.2302.6527-.5695l.0162-1.0813-.0006-.1272c-.0018-.3817.42-.5917.7169-.3783.0848.0428.1273.0854.212.1282.5089.3416.9114.5343.9724.0045.1434-.9959-.7936-2.4845-2.1685-2.6817s-2.659.9631-2.8024 1.959c-.1247.4659.2977.383.8676.1948z"/></g><path d="m18.6376 34.7061c2.2052-.1297 3.8422-2.7221 3.6563-5.7901-.1858-3.0681-2.1242-5.4501-4.3294-5.3204-2.2053.1298-3.8423 2.7221-3.6564 5.7902s2.1242 5.4501 4.3295 5.3203z" fill="#e5002d"/><path d="m17.229 27.0026c.3722-.022.6487-.4581.6173-.9742-.0313-.5161-.3584-.9167-.7307-.8948-.3723.022-.6487.4581-.6174.9742s.3585.9167.7308.8948z" fill="#333"/><path d="m20.8469 30.5631c.3723-.0219.6487-.4581.6174-.9742s-.3585-.9167-.7308-.8947c-.3723.0219-.6487.4581-.6174.9742.0314.5161.3585.9167.7308.8947z" fill="#333"/><path d="m18.3872 30.3569c.2292-.0135.398-.3034.3771-.6474-.0208-.3441-.2234-.6121-.4525-.5987-.2292.0135-.398.3034-.3771.6475.0208.3441.2234.6121.4525.5986z" fill="#333"/><path d="m19.6354 26.8164c.2291-.0135.398-.3034.3771-.6475-.0208-.3441-.2235-.6121-.4526-.5986s-.3979.3034-.3771.6474c.0209.3441.2235.6121.4526.5987z" fill="#333"/><path d="m15.7881 29.9213c.2291-.0134.398-.3033.3771-.6474-.0208-.3441-.2234-.6121-.4526-.5986-.2291.0135-.3979.3033-.3771.6474.0209.3441.2235.6121.4526.5986z" fill="#333"/><path d="m19.3277 33.3437c.2291-.0135.398-.3033.3771-.6474-.0208-.3441-.2234-.6121-.4526-.5986-.2291.0134-.3979.3033-.3771.6474.0209.3441.2235.6121.4526.5986z" fill="#333"/><path d="m16.8905 32.7273c.3723-.0219.6488-.458.6175-.9741-.0312-.5162-.3584-.9168-.7307-.8949s-.6488.4581-.6175.9742c.0312.5161.3584.9167.7307.8948z" fill="#333"/><path d="m26.1397 23.3032c-.8993.5192-2.035.2135-2.5554-.6877-.5203-.9013-.2171-2.0377.6822-2.5569.8993-.5193 2.035-.2136 2.5554.6877.5203.9012.2172 2.0376-.6822 2.5569zm-1.3789-2.3884c-.4047.2336-.5563.8018-.3221 1.2074.2341.4056.802.5584 1.2067.3247.4047-.2336.5563-.8018.3221-1.2074-.2341-.4055-.802-.5584-1.2067-.3247z" fill="#00a149"/><path d="m39.3092 46.9443c-.8993.5192-2.0351.2135-2.5554-.6877-.5204-.9013-.2172-2.0377.6821-2.5569s2.0351-.2136 2.5554.6877c.5653.8753.2172 2.0376-.6821 2.5569zm-1.379-2.3884c-.4046.2336-.5562.8018-.3221 1.2074.2342.4056.8021.5584 1.2067.3248.4047-.2337.5563-.8019.3222-1.2075-.2602-.4506-.7571-.5843-1.2068-.3247z" fill="#00a149"/><path d="m39.6676 35.4411c-.7195.4154-1.543.6505-2.4067.6084l.0074-1.0257.2005-7.0256.0074-1.0257c1.2115.0215 2.2904.5403 3.1586 1.421.8232.9066 1.2418 2.0469 1.1965 3.2147-.0192 1.2128-.5353 2.2919-1.4134 3.1594-.1918.2909-.4805.5177-.7503.6735z" fill="#00a149"/></g><path d="m68.2 43.75h2.28v-12.9h-2.22v-5.19h12.48c2.86 0 5.21.49 7.05 1.47 1.86.96 2.79 2.72 2.79 5.28 0 2.98-.81 5.13-2.43 6.45-1.62 1.3-4.05 1.95-7.29 1.95-.8 0-1.53-.05-2.19-.15v3.09h2.13v5.25h-12.6zm11.1-7.71c2.22 0 3.33-.98 3.33-2.94 0-.72-.25-1.27-.75-1.65-.48-.4-1.13-.6-1.95-.6h-1.23v5.19zm18.9987-4.26c-1.22 0-2.23-.29-3.03-.87-.78-.58-1.17-1.41-1.17-2.49s.39-1.9 1.17-2.46c.8-.56 1.82-.84 3.06-.84s2.2503.28 3.0303.84c.78.54 1.17 1.36 1.17 2.46 0 1.08-.4 1.91-1.2 2.49s-1.8103.87-3.0303.87zm-5.4 17.22v-4.41h1.89v-6.75h-1.89v-3.6l8.9103-.93v11.28h1.89v4.41zm18.4073-17.22c-1.22 0-2.23-.29-3.03-.87-.78-.58-1.17-1.41-1.17-2.49s.39-1.9 1.17-2.46c.8-.56 1.82-.84 3.06-.84s2.25.28 3.03.84c.78.54 1.17 1.36 1.17 2.46 0 1.08-.4 1.91-1.2 2.49s-1.81.87-3.03.87zm-5.4 17.22v-4.41h1.89v-6.75h-1.89v-3.6l8.91-.93v11.28h1.89v4.41zm12.948 0v-4.14l7.23-7.26h-3l-.96 2.07h-2.88v-6.36h14.97v4.05l-6.87 7.32h4.2l.51-2.28h2.7v6.6zm23.622.27c-.98 0-1.88-.19-2.7-.57-.82-.4-1.48-.96-1.98-1.68-.48-.72-.72-1.56-.72-2.52 0-1.04.28-1.91.84-2.61.58-.72 1.34-1.25 2.28-1.59.94-.36 1.95-.54 3.03-.54 1.28 0 2.51.19 3.69.57v-.66c0-.78-.33-1.37-.99-1.77-.66-.42-1.55-.63-2.67-.63-.72 0-1.55.13-2.49.39s-1.72.58-2.34.96l-.42-.18v-4.26c1.18-.42 2.38-.72 3.6-.9 1.24-.18 2.39-.27 3.45-.27 5.94 0 8.91 1.67 8.91 5.01v6.57h1.38v4.41h-7.5l-.66-2.4c-.42.82-1.08 1.47-1.98 1.95-.88.48-1.79.72-2.73.72zm2.76-3.75c.32 0 .65-.05.99-.15.34-.12.57-.24.69-.36v-2.46c-.14-.02-.38-.07-.72-.15-.32-.1-.6-.15-.84-.15-.52 0-.94.16-1.26.48-.3.32-.45.75-.45 1.29 0 .4.14.75.42 1.05.3.3.69.45 1.17.45zm12.499 3.48v-4.41h2.58v-13.5h-2.58v-3.99l9.6-.96v18.45h2.25v4.41zm19.636-17.22c-1.22 0-2.23-.29-3.03-.87-.78-.58-1.17-1.41-1.17-2.49s.39-1.9 1.17-2.46c.8-.56 1.82-.84 3.06-.84s2.25.28 3.03.84c.78.54 1.17 1.36 1.17 2.46 0 1.08-.4 1.91-1.2 2.49s-1.81.87-3.03.87zm-5.4 17.22v-4.41h1.89v-6.75h-1.89v-3.6l8.91-.93v11.28h1.89v4.41zm18.288.27c-.98 0-1.88-.19-2.7-.57-.82-.4-1.48-.96-1.98-1.68-.48-.72-.72-1.56-.72-2.52 0-1.04.28-1.91.84-2.61.58-.72 1.34-1.25 2.28-1.59.94-.36 1.95-.54 3.03-.54 1.28 0 2.51.19 3.69.57v-.66c0-.78-.33-1.37-.99-1.77-.66-.42-1.55-.63-2.67-.63-.72 0-1.55.13-2.49.39s-1.72.58-2.34.96l-.42-.18v-4.26c1.18-.42 2.38-.72 3.6-.9 1.24-.18 2.39-.27 3.45-.27 5.94 0 8.91 1.67 8.91 5.01v6.57h1.38v4.41h-7.5l-.66-2.4c-.42.82-1.08 1.47-1.98 1.95-.88.48-1.79.72-2.73.72zm2.76-3.75c.32 0 .65-.05.99-.15.34-.12.57-.24.69-.36v-2.46c-.14-.02-.38-.07-.72-.15-.32-.1-.6-.15-.84-.15-.52 0-.94.16-1.26.48-.3.32-.45.75-.45 1.29 0 .4.14.75.42 1.05.3.3.69.45 1.17.45zm33.889-.75v4.23h-9.06v-9.99c0-.42-.14-.79-.42-1.11-.26-.32-.58-.48-.96-.48-.72 0-1.18.36-1.38 1.08-.18.7-.27 1.72-.27 3.06v3.21h.03v4.23h-9.15v-4.23h2.13v-6.93h-2.13v-3.96l9.12-.87v2.19c.68-.8 1.45-1.36 2.31-1.68.86-.34 1.83-.51 2.91-.51 3.22 0 4.83 2.01 4.83 6.03v5.73z" fill="#333"/></svg>
