<svg fill="none" height="76" viewBox="0 0 227 76" width="227" xmlns="http://www.w3.org/2000/svg" xmlns:xlink="http://www.w3.org/1999/xlink"><clipPath id="a"><path d="m0 0h47v60h-47z" transform="matrix(.8660254 -.5 .5 .8660254 .148407 23.7692)"/></clipPath><g clip-path="url(#a)"><path d="m43.3012 9.30974c2.3873-4.20033-1.2771-2.62742-2.7395-2.56422-6.983.36644-13.9829 2.36498-20.458 6.10338s-11.70591 8.8013-15.51475 14.6655c-.83089 1.2608-.42903 2.8915.85093 3.6546.45899.2758 1.03167.1254 1.30627-.3336 3.61485-5.9925 8.67765-11.1387 15.15275-14.8771s13.4632-5.5498 20.4343-5.7291c.5608.0367.9774-.38408.968-.91946z" fill="#d6e664" stroke="#333" stroke-miterlimit="10" stroke-width="2"/><path d="m42.6853 12.1889c-6.7723.0045-13.6066 1.667-19.9018 5.3016-6.2952 3.6345-11.1782 8.6768-14.54216 14.5847 0 0 43.55336 34.6534 41.09366 31.4039s-6.6497-51.2902-6.6497-51.2902z" fill="#d6e664" stroke="#333" stroke-miterlimit="10" stroke-width="2"/><path d="m25.7041 33.3491c-2.9847 3.3455.2395 7.3723.8676 12.7178s-6.2605 6.4986-6.2605 6.4986 2.1222 1.5988 7.2978-.5482c7.9468-3.2662 7.6228-13.1734 6.8878-16.8349-.69-3.6874-5.8079-5.1789-8.7927-1.8333z" stroke="#fff" stroke-linecap="round" stroke-linejoin="round" stroke-miterlimit="10" stroke-width="3"/><path d="m30.7014 25.597s-.045.026-.1539.149c-.0639.0969-.2438.2008-.3716.3948-.3077.2978-.6533.7376-.9208 1.3127-.2936.53-.4901 1.1242-.5778 1.5954-.0568.213-.0687.4002-.0806.5873-.0379.142-.0308.2581-.0308.2581-1.1194.3458-1.7964 1.4577-1.825 2.1352 1.5597-1.1408 3.4149-1.2506 4.9386-.6883.019-.071.0379-.142.0119-.1871-.3263-.7729-.9154-1.274-1.6892-1.3681 0 0-.026-.045-.007-.116-.0071-.1161-.0142-.2322-.0283-.4644-.0212-.3483.0404-.8645.1731-1.3617.1326-.4972.3362-.9753.5469-1.3372.0829-.1681.1918-.291.2557-.388s.0828-.168.0828-.168c.064-.097.0569-.2131-.0401-.2772-.0331-.1612-.194-.1284-.2839-.0765z" stroke="#fff" stroke-linecap="round" stroke-linejoin="round" stroke-miterlimit="10" stroke-width="3"/><path d="m20.3112 52.5655s6.8626-1.1982 6.2345-6.5436c-.6281-5.3455-3.9233-9.3915-.8676-12.7179 2.9848-3.3455 8.1027-1.854 8.8376 1.8074.7161 3.7325 1.0401 13.6397-6.8807 16.951-5.1756 2.1469-7.3238.5031-7.3238.5031z" fill="#e5002d"/><path d="m27.6022 50.7594c6.4677-2.7127 6.0439-10.8198 5.8838-14.2123-.0141-.2322-.0543-.5094-.1134-.7156-.1691 4.4838-.3318 11.3674-5.7704 14.9279z" fill="#fff"/><path d="m31.6535 31.2962c.019-.0711.0379-.1421.0119-.1871-.4895-1.1595-1.5424-1.6331-2.8747-1.3446-1.2163.2817-2.0022 1.5165-2.0758 2.2199 1.5407-1.0698 3.4149-1.2505 4.9386-.6882z" fill="#333"/><path d="m28.5399 29.8492s-.0071-.116.0308-.2581c.0379-.142.0498-.3292.0806-.5873.0877-.4712.2842-1.0654.5778-1.5954.2935-.53.6581-1.0408.9658-1.3387.1538-.1489.3077-.2978.3716-.3948s.1538-.1489.1538-.1489c.09-.0519.2059-.0588.3029.0054.052.0901.0591.2062.0402.2773 0 0-.019.071-.0829.168-.0639.0969-.1728.2199-.2557.3879-.2106.362-.4143.8401-.5469 1.3372-.1326.4972-.1943 1.0135-.1731 1.3618-.0119.1871.0212.3482.0283.4643-.0569.2131-.0569.2131-.0569.2131.0473.3933-.2794.7622-.6982.7636-.3928.0466-.7359-.2361-.7381-.6554z" fill="#333"/><path d="m27.0476 35.8968c.3706.0428.7208-.362.7823-.9042.0614-.5421-.1892-1.0163-.5598-1.0591s-.7209.3621-.7823.9042c-.0615.5421.1891 1.0163.5598 1.0591z" fill="#fff"/><path d="m27.4549 38.2345c.2566.0296.4987-.2471.5407-.618.0421-.3709-.1319-.6957-.3884-.7253-.2566-.0296-.4987.2471-.5407.618-.0421.371.1318.6957.3884.7253z" fill="#fff"/><path d="m35.5744 22.3029c-.0331-.1611.0048-.3032-.0023-.4193.0048-.3032.1516-.5682.4214-.7239.1799-.1039.3857-.1627.5987-.1053.071.0191.142.0382.2129.0573l1.881 1.0771c.511.3659 1.2186.1376 1.4601-.4825l.3693-.8141c.2226-.5491-.0967-1.206-.6646-1.3588l-1.8006-.5226-.2129-.0573c-.6389-.1719-.8043-.9777-.3167-1.3794.1088-.1229.1988-.1748.3077-.2978.7952-.6995 1.2946-1.2882.4358-1.6336-1.6018-.6975-4.5031.1965-5.4384 2.4188-.9352 2.2224.4389 4.914 2.0407 5.6115.724.4232.7715-.3253.7079-1.3701z" fill="#333"/><path d="m41.5305 56.3286c.0844-.042.1689-.0416.2322-.0626.169-.0416.3383.0016.4657.1294.0849.0852.1488.1915.1494.3188.0002.0424.0004.0848.0006.1272l-.3115 1.2071c-.1253.3387.1089.7002.4896.7444l.5077.0872c.3384.0439.6543-.2303.6527-.5695l.0162-1.0813-.0006-.1272c-.0018-.3817.42-.5918.7169-.3784.0848.0428.1273.0854.212.1282.5089.3416.9114.5343.9724.0045.1434-.9959-.7936-2.4844-2.1685-2.6816s-2.659.963-2.8024 1.9589c-.1247.4659.2977.3831.8676.1949z" fill="#333"/><path d="m18.6375 34.7069c2.2052-.1298 3.8423-2.7221 3.6564-5.7902s-2.1242-5.4501-4.3295-5.3203c-2.2052.1297-3.8422 2.7221-3.6563 5.7901.1858 3.0681 2.1242 5.4501 4.3294 5.3204z" fill="#e5002d"/><g fill="#333"><path d="m17.229 27.0032c.3722-.022.6487-.4581.6173-.9742-.0313-.5161-.3584-.9167-.7307-.8948s-.6487.4581-.6174.9742.3585.9167.7308.8948z"/><path d="m20.8469 30.5637c.3723-.0219.6487-.4581.6174-.9742s-.3585-.9167-.7308-.8948c-.3723.022-.6487.4581-.6174.9742.0314.5161.3585.9167.7308.8948z"/><path d="m18.3872 30.3576c.2291-.0135.3979-.3034.3771-.6474-.0209-.3441-.2235-.6121-.4526-.5987-.2291.0135-.398.3034-.3771.6475.0208.344.2235.6121.4526.5986z"/><path d="m19.6354 26.8168c.2291-.0135.3979-.3033.3771-.6474-.0209-.3441-.2235-.6121-.4526-.5986-.2291.0134-.398.3033-.3771.6474.0208.3441.2235.6121.4526.5986z"/><path d="m15.7881 29.9217c.2291-.0134.3979-.3033.3771-.6474s-.2235-.6121-.4526-.5986-.3979.3033-.3771.6474.2235.6121.4526.5986z"/><path d="m19.3277 33.3442c.2291-.0135.398-.3033.3771-.6474-.0208-.3441-.2235-.6121-.4526-.5986s-.3979.3033-.3771.6474c.0209.3441.2235.6121.4526.5986z"/><path d="m16.8904 32.728c.3724-.022.6488-.4581.6176-.9742-.0313-.5162-.3585-.9168-.7308-.8949s-.6488.4581-.6175.9742.3584.9168.7307.8949z"/></g><path d="m26.1397 23.3037c-.8993.5192-2.035.2136-2.5554-.6877-.5203-.9013-.2171-2.0377.6822-2.5569s2.035-.2136 2.5554.6877c.5203.9013.2172 2.0377-.6822 2.5569zm-1.3789-2.3884c-.4047.2337-.5563.8019-.3221 1.2075.2341.4055.802.5584 1.2067.3247.4047-.2336.5563-.8018.3221-1.2074-.2341-.4056-.802-.5584-1.2067-.3248z" fill="#00a149"/><path d="m39.3092 46.9446c-.8993.5192-2.0351.2136-2.5554-.6877-.5204-.9013-.2172-2.0377.6821-2.5569s2.0351-.2136 2.5554.6877c.5653.8753.2172 2.0377-.6821 2.5569zm-1.379-2.3884c-.4046.2337-.5562.8019-.3221 1.2074.2342.4056.8021.5584 1.2067.3248.4047-.2337.5563-.8019.3222-1.2074-.2602-.4507-.7571-.5844-1.2068-.3248z" fill="#00a149"/><path d="m39.6676 35.4417c-.7195.4153-1.543.6505-2.4067.6083l.0074-1.0257.2006-7.0255.0073-1.0257c1.2115.0215 2.2904.5402 3.1586 1.4209.8233.9067 1.2418 2.047 1.1966 3.2147-.0193 1.2129-.5354 2.292-1.4135 3.1594-.1918.291-.4805.5178-.7503.6736z" fill="#00a149"/></g><path d="m68.2 43.75h2.28v-12.9h-2.22v-5.19h12.48c2.86 0 5.21.49 7.05 1.47 1.86.96 2.79 2.72 2.79 5.28 0 2.98-.81 5.13-2.43 6.45-1.62 1.3-4.05 1.95-7.29 1.95-.8 0-1.53-.05-2.19-.15v3.09h2.13v5.25h-12.6zm11.1-7.71c2.22 0 3.33-.98 3.33-2.94 0-.72-.25-1.27-.75-1.65-.48-.4-1.13-.6-1.95-.6h-1.23v5.19zm18.9987-4.26c-1.22 0-2.23-.29-3.03-.87-.78-.58-1.17-1.41-1.17-2.49s.39-1.9 1.17-2.46c.8-.56 1.82-.84 3.06-.84s2.2503.28 3.0303.84c.78.54 1.17 1.36 1.17 2.46 0 1.08-.4 1.91-1.2 2.49s-1.8103.87-3.0303.87zm-5.4 17.22v-4.41h1.89v-6.75h-1.89v-3.6l8.9103-.93v11.28h1.89v4.41zm18.4073-17.22c-1.22 0-2.23-.29-3.03-.87-.78-.58-1.17-1.41-1.17-2.49s.39-1.9 1.17-2.46c.8-.56 1.82-.84 3.06-.84s2.25.28 3.03.84c.78.54 1.17 1.36 1.17 2.46 0 1.08-.4 1.91-1.2 2.49s-1.81.87-3.03.87zm-5.4 17.22v-4.41h1.89v-6.75h-1.89v-3.6l8.91-.93v11.28h1.89v4.41zm12.948 0v-4.14l7.23-7.26h-3l-.96 2.07h-2.88v-6.36h14.97v4.05l-6.87 7.32h4.2l.51-2.28h2.7v6.6zm23.622.27c-.98 0-1.88-.19-2.7-.57-.82-.4-1.48-.96-1.98-1.68-.48-.72-.72-1.56-.72-2.52 0-1.04.28-1.91.84-2.61.58-.72 1.34-1.25 2.28-1.59.94-.36 1.95-.54 3.03-.54 1.28 0 2.51.19 3.69.57v-.66c0-.78-.33-1.37-.99-1.77-.66-.42-1.55-.63-2.67-.63-.72 0-1.55.13-2.49.39s-1.72.58-2.34.96l-.42-.18v-4.26c1.18-.42 2.38-.72 3.6-.9 1.24-.18 2.39-.27 3.45-.27 5.94 0 8.91 1.67 8.91 5.01v6.57h1.38v4.41h-7.5l-.66-2.4c-.42.82-1.08 1.47-1.98 1.95-.88.48-1.79.72-2.73.72zm2.76-3.75c.32 0 .65-.05.99-.15.34-.12.57-.24.69-.36v-2.46c-.14-.02-.38-.07-.72-.15-.32-.1-.6-.15-.84-.15-.52 0-.94.16-1.26.48-.3.32-.45.75-.45 1.29 0 .4.14.75.42 1.05.3.3.69.45 1.17.45zm12.499 3.48v-4.41h2.58v-13.5h-2.58v-3.99l9.6-.96v18.45h2.25v4.41zm19.636-17.22c-1.22 0-2.23-.29-3.03-.87-.78-.58-1.17-1.41-1.17-2.49s.39-1.9 1.17-2.46c.8-.56 1.82-.84 3.06-.84s2.25.28 3.03.84c.78.54 1.17 1.36 1.17 2.46 0 1.08-.4 1.91-1.2 2.49s-1.81.87-3.03.87zm-5.4 17.22v-4.41h1.89v-6.75h-1.89v-3.6l8.91-.93v11.28h1.89v4.41zm18.288.27c-.98 0-1.88-.19-2.7-.57-.82-.4-1.48-.96-1.98-1.68-.48-.72-.72-1.56-.72-2.52 0-1.04.28-1.91.84-2.61.58-.72 1.34-1.25 2.28-1.59.94-.36 1.95-.54 3.03-.54 1.28 0 2.51.19 3.69.57v-.66c0-.78-.33-1.37-.99-1.77-.66-.42-1.55-.63-2.67-.63-.72 0-1.55.13-2.49.39s-1.72.58-2.34.96l-.42-.18v-4.26c1.18-.42 2.38-.72 3.6-.9 1.24-.18 2.39-.27 3.45-.27 5.94 0 8.91 1.67 8.91 5.01v6.57h1.38v4.41h-7.5l-.66-2.4c-.42.82-1.08 1.47-1.98 1.95-.88.48-1.79.72-2.73.72zm2.76-3.75c.32 0 .65-.05.99-.15.34-.12.57-.24.69-.36v-2.46c-.14-.02-.38-.07-.72-.15-.32-.1-.6-.15-.84-.15-.52 0-.94.16-1.26.48-.3.32-.45.75-.45 1.29 0 .4.14.75.42 1.05.3.3.69.45 1.17.45zm33.889-.75v4.23h-9.06v-9.99c0-.42-.14-.79-.42-1.11-.26-.32-.58-.48-.96-.48-.72 0-1.18.36-1.38 1.08-.18.7-.27 1.72-.27 3.06v3.21h.03v4.23h-9.15v-4.23h2.13v-6.93h-2.13v-3.96l9.12-.87v2.19c.68-.8 1.45-1.36 2.31-1.68.86-.34 1.83-.51 2.91-.51 3.22 0 4.83 2.01 4.83 6.03v5.73z" fill="#fff"/></svg>
